<svg version="1.2" xmlns="http://www.w3.org/2000/svg" viewBox="0 0 1024 1024" width="1024" height="1024">
	<title>gears-svg</title>
	<style>
		.s0 { fill: #ffffff } 
		.s1 { fill: #000000;stroke: #000000;stroke-miterlimit:100;stroke-width: 34.2 } 
		.s2 { fill: #ffffff;stroke: #000000;stroke-miterlimit:100;stroke-width: 2 } 
	</style>
	<rect width="1024" height="1024" id="Preencher com Cor Sólida 1" style="fill: #000000"/>
	<g id="Layer">
		<path id="Layer" fill-rule="evenodd" class="s0" d="m949.5 462.1l-78-35c-19.2 20.9-43 37.1-69.6 47.5l8.8 88.8-114.1 11.3-10.2-93.5c-24.8-6.4-47.3-17.7-66.7-32.6l-27.3 19.5 42.6 75.7-99.4 57c14.4 34.7 24.5 71.5 29.5 110h116.6v113h-116.8c-5.2 39.5-15.8 77.3-30.9 112.7l101 58.1-13.5 24.5h-621.5v-192.4c22.6 50.3 73.2 85.4 131.9 85.4 79.8 0 144.6-64.8 144.6-144.6 0-79.8-64.8-144.5-144.6-144.5-58.7 0-109.3 35-131.9 85.3v-356.1c23.8-7.7 48.4-13.4 73.7-16.9v-118.2h113v117.7c39.6 5 77.6 15.3 113.2 30.1l58.7-101.2 98.3 54.1-59.6 103.5c30.9 23.7 58.6 51.3 82.2 82.3l42.4-24.6-48.8-66.7 81.1-59.1c-6.6-22.5-9-46.5-6.4-71l-91.6-41 46.5-103.8 91.2 40.8c16-17.9 35.3-32.6 56.7-43.3l-10.5-95.7 114.1-11.2 9.9 89.8c27.8 4.7 53.3 15.4 75.2 30.5l70.7-50.6 67.7 92.6-68.5 48.9c7.3 20.2 11.2 41.9 11.1 64.1-0.1 6.8-0.5 13.6-1.3 20.4l77 34.5zm-130.9-166.1c-3.1-51-47-89.9-98.1-86.7-51 3.1-89.8 47-86.7 98 3.1 51.1 47 89.9 98 86.8 49.5-3 87.5-44.3 87-93.3 0-1.6-0.1-3.2-0.2-4.8z"/>
	</g>
	<g id="Layer">
		<path id="idcard copy" class="s1" d="m272 430c0-19.9 16.1-36 36-36h444c19.9 0 36 16.1 36 36v315c0 19.9-16.1 36-36 36h-444c-19.9 0-36-16.1-36-36z"/>
		<path id="idcard" fill-rule="evenodd" class="s2" d="m272 430c0-19.9 16.1-36 36-36h444c19.9 0 36 16.1 36 36v315c0 19.9-16.1 36-36 36h-444c-19.9 0-36-16.1-36-36zm26.5 11.2h463v-20.7h-463zm0 313.3h241.9v-297.2h-241.9zm221.1-276.4v255.7h-8.1c-0.5-28.1-21.1-85.4-54.2-112.8-10.6 8.6-23.6 13.7-37.9 13.7-14.2 0-27.2-5.1-37.8-13.7-33.2 27.4-53.7 84.7-54.3 112.8h-8.1v-255.7zm55.3 36.8h168.2v-20.7h-168.2zm-200.4 44.9c0 30.9 20.9 54.2 44.9 54.2 24 0 44.9-23.3 44.9-54.2 0-30.8-20.9-54.1-44.9-54.1-24 0-44.9 23.3-44.9 54.1zm200.4-8h131.3v-20.8h-131.3zm0 36.9h57.6v-20.7h-57.6zm92.2 0h76v-20.8h-76zm-18.5 110.6h112.9v-20.7h-112.9zm-36.8 36.8h149.7v-20.7h-149.7z"/>
	</g>
</svg>